<svg xmlns="http://www.w3.org/2000/svg" xmlns:xlink="http://www.w3.org/1999/xlink" version="1.1" x="0px" y="0px" viewBox="0 0 100 100" xml:space="preserve">
    <g>
        <g transform="scale(.6)">
            <g transform="translate(23,34)">
                <g transform="rotate(45)" transform-origin="50% 50%">
                    <path d="M20.3,69.8l9.9,9.9c2.3,2.3,5.4,3.5,8.5,3.5c3.1,0,6.1-1.2,8.5-3.5L59.9,67l-5.7-5.7L41.5,74c-1.6,1.6-4.1,1.6-5.7,0   L26,64.1c-1.6-1.6-1.6-4.1,0-5.7l12.7-12.7L33,40.1L20.3,52.8C15.6,57.5,15.6,65.1,20.3,69.8z"/>
                    <path d="M79.7,30.2l-9.9-9.9c-4.7-4.7-12.3-4.7-17,0L40.1,33l5.7,5.7L58.5,26c1.6-1.6,4.1-1.6,5.7,0l9.9,9.9c1.6,1.6,1.6,4.1,0,5.7   L61.3,54.2l5.7,5.7l12.7-12.7C84.4,42.5,84.4,34.9,79.7,30.2z"/>
                    <rect x="36" y="46" width="28" height="8" transform="matrix(0.7071 -0.7071 0.7071 0.7071 -20.7107 50)" />          
                </g>            
            </g>            
        </g>
        <g transform="translate(5,4)">
            <path stroke="#0078D7" fill="#0078D7" transform="scale(3.75)" d="M0 8.899l2.247-2.966 8.405-3.416V.045l7.37 5.393L2.966 8.36v8.224L0 15.73zm24-4.45v14.652L18.247 24l-9.303-3.056V24l-5.978-7.416 15.057 1.798V5.438z"/>            
        </g>
    </g>
</svg>